<?xml version="1.0" standalone="no"?>
<!DOCTYPE svg PUBLIC "-//W3C//DTD SVG 20010904//EN"
 "http://www.w3.org/TR/2001/REC-SVG-20010904/DTD/svg10.dtd">
<svg version="1.0" xmlns="http://www.w3.org/2000/svg"
 width="1656.000000pt" height="1656.000000pt" viewBox="0 0 1656.000000 1656.000000"
 preserveAspectRatio="xMidYMid meet">
<metadata>
Created by potrace 1.14, written by Peter Selinger 2001-2017
</metadata>
<g transform="translate(0.000000,1656.000000) scale(0.100000,-0.100000)"
fill="#000000" stroke="none">
<path d="M4420 8280 l0 -8280 1200 0 1201 0 -1 62 c0 64 -1 231 -1 258 1 141
-1 255 -5 261 -2 4 0 10 6 14 7 4 7 12 0 24 -5 10 -7 20 -5 23 4 3 5 64 5 153
-1 82 -2 263 -2 275 1 8 1 224 0 480 0 256 0 471 1 478 0 6 0 53 0 102 0 50 0
98 0 108 1 164 -1 257 -5 263 -2 4 0 10 6 14 7 4 7 12 0 24 -5 10 -7 20 -5 23
4 3 5 64 5 153 -1 75 -2 263 -2 275 0 8 0 368 0 800 0 432 0 791 1 798 0 6 0
53 0 102 0 50 0 98 0 108 1 164 -1 257 -5 263 -2 4 0 10 6 14 7 4 7 12 0 24
-5 10 -7 20 -5 23 4 3 5 64 5 153 -1 74 -2 262 -2 273 0 6 1 197 1 422 0 226
0 418 0 428 2 92 -1 257 -5 263 -2 4 0 10 6 14 7 4 7 12 0 24 -5 10 -7 20 -5
23 3 3 5 61 5 151 0 9 -1 46 -1 82 0 36 0 73 0 83 0 9 0 71 0 136 0 66 -2 123
-5 127 -2 4 0 10 6 14 7 4 7 12 0 24 -5 10 -7 20 -5 23 4 3 6 86 4 153 0 28
-1 897 0 913 0 6 0 53 0 102 0 50 0 98 0 108 1 164 -1 257 -5 263 -2 4 0 10 6
14 7 4 7 12 0 24 -5 10 -7 20 -5 23 4 3 5 64 5 153 -1 74 -2 262 -2 273 0 6 1
197 1 422 0 226 0 418 0 428 2 92 -1 257 -5 263 -2 4 0 10 6 14 7 4 7 12 0 24
-5 10 -7 20 -5 23 3 3 5 61 5 151 0 9 -1 46 -1 82 0 36 0 73 0 83 0 9 0 71 0
136 0 66 -2 123 -5 127 -2 4 0 10 6 14 7 4 7 12 0 24 -5 10 -7 20 -5 23 3 3 5
61 5 151 0 9 -1 46 -1 82 0 36 0 73 0 83 0 9 0 71 0 136 0 66 -2 123 -5 127
-2 4 0 10 6 14 7 4 7 12 0 24 -5 10 -7 20 -5 23 3 3 5 61 5 151 0 9 -1 46 -1
82 0 36 0 73 0 83 0 9 0 71 0 136 0 66 -2 123 -5 127 -2 4 0 10 6 14 7 4 7 12
0 24 -5 10 -7 20 -5 23 4 3 6 86 4 153 0 28 -1 897 0 913 0 6 0 53 0 102 0 50
0 98 0 108 1 164 -1 257 -5 263 -2 4 0 10 6 14 7 4 7 12 0 24 -5 10 -7 20 -5
23 4 3 5 64 5 153 -1 74 -2 262 -2 273 0 6 1 197 1 422 0 226 0 418 0 428 2
92 -1 257 -5 263 -2 4 0 10 6 14 7 4 7 12 0 24 -5 10 -7 20 -5 23 3 3 5 61 5
151 0 9 -1 46 -1 82 0 36 0 73 0 83 0 9 0 71 0 136 0 66 -2 123 -5 127 -2 4 0
10 6 14 6 3 7 13 2 20 -4 8 -5 44 -2 80 3 36 3 73 -1 82 -3 10 -3 27 1 37 3
11 5 30 2 43 l-4 23 -1199 0 -1199 0 0 -8280z"/>
<path d="M7160 9940 c-33 -4 -44 -9 -42 -20 6 -24 3 -141 -3 -151 -4 -5 -1 -9
5 -9 6 0 8 -4 5 -10 -7 -12 -9 -209 -2 -216 2 -3 1 -21 -3 -40 -5 -20 -4 -34
2 -34 5 0 6 -5 2 -11 -4 -6 -6 -44 -5 -83 3 -85 3 -99 1 -151 -1 -40 -2 -156
-1 -185 0 -8 0 -40 0 -70 0 -30 0 -67 0 -82 1 -40 0 -148 0 -253 0 -33 0 -67
0 -75 0 -8 0 -40 0 -70 0 -57 0 -70 1 -155 0 -27 -1 -76 -2 -108 -2 -31 1 -57
5 -57 5 0 6 -4 2 -9 -5 -8 -6 -61 -5 -239 0 -30 -2 -58 -6 -63 -3 -5 0 -9 6
-9 6 0 8 -4 5 -10 -3 -5 -5 -56 -5 -112 1 -101 0 -153 -4 -193 -1 -11 1 -35 5
-53 4 -17 3 -34 -1 -37 -4 -3 -4 -21 0 -40 4 -19 5 -50 1 -67 -4 -18 -6 -44
-4 -58 2 -14 3 -52 2 -85 0 -33 0 -67 0 -75 0 -8 0 -40 0 -70 0 -30 0 -67 0
-82 1 -40 0 -148 0 -253 0 -33 0 -67 0 -75 0 -8 0 -40 0 -70 0 -57 0 -70 1
-155 0 -27 -1 -76 -2 -108 -2 -31 1 -57 5 -57 5 0 6 -4 2 -9 -5 -8 -6 -61 -5
-239 0 -30 -2 -58 -6 -63 -3 -5 0 -9 6 -9 6 0 8 -4 5 -10 -7 -12 -9 -209 -2
-216 2 -3 1 -21 -3 -40 -5 -20 -4 -34 2 -34 5 0 6 -5 2 -11 -4 -6 -6 -44 -5
-83 3 -85 3 -99 1 -151 -1 -40 -2 -156 -1 -185 2 -77 1 -122 -3 -128 -3 -5 -1
-14 3 -21 5 -7 5 -30 1 -52 -4 -21 -4 -39 0 -39 4 0 7 -8 6 -17 0 -10 4 -17
11 -16 6 1 80 5 165 8 84 3 176 8 203 10 103 8 181 15 210 20 17 2 53 7 80 11
28 3 57 7 65 9 8 1 40 6 70 11 69 10 74 10 80 13 3 2 14 4 25 6 11 2 36 7 55
11 19 4 42 8 50 10 54 9 80 15 115 24 22 6 54 13 70 16 17 3 37 8 45 11 8 3
20 7 25 8 6 2 43 12 82 23 39 11 74 17 77 14 3 -3 6 -1 6 5 0 5 6 10 13 10 15
0 251 79 294 99 17 8 35 14 41 14 5 0 31 9 58 21 27 11 58 24 69 29 11 4 46
20 78 34 32 14 60 26 63 26 8 0 297 143 304 150 3 3 28 17 55 31 218 113 526
319 743 497 23 19 51 43 64 53 13 11 45 39 73 62 134 113 372 351 495 496 30
36 62 72 70 80 8 9 25 30 38 46 57 75 68 89 85 106 9 11 17 22 17 25 0 3 15
24 33 47 41 51 45 58 161 232 51 77 105 160 119 185 99 172 231 428 284 554
39 92 46 111 48 116 1 3 10 23 20 45 9 22 18 45 20 50 1 6 6 21 12 35 5 14 20
54 32 90 13 36 27 74 31 85 8 19 77 248 85 284 2 9 11 41 20 71 8 30 18 69 21
85 2 17 12 59 20 95 8 36 17 81 20 100 3 19 8 38 10 41 2 4 6 27 9 50 6 45 12
83 20 129 2 14 7 49 10 79 4 30 8 62 10 72 10 53 22 208 31 427 l6 162 -338 1
c-187 1 -343 0 -349 -1 -5 -1 -14 -2 -20 -2 -5 0 -111 1 -235 1 -124 0 -232 0
-240 0 -8 0 -55 0 -105 1 -49 0 -146 1 -215 1 -69 1 -131 1 -137 0 -7 -1 -19
-1 -25 -2 -10 0 -418 -1 -478 0 -8 0 -55 0 -105 1 -49 0 -146 1 -215 1 -69 1
-131 1 -137 0 -27 -2 -44 -2 -263 -2 -124 0 -232 0 -240 0 -8 0 -346 0 -750 0
-404 0 -792 0 -863 0 -70 0 -131 2 -135 5 -4 2 -14 1 -21 -4 -8 -4 -25 -5 -40
-1 -14 4 -46 4 -71 1z"/>
<path d="M7105 4830 c-3 -5 -5 -119 -5 -252 1 -278 1 -257 0 -283 0 -11 0 -27
0 -35 1 -8 1 -28 1 -45 -1 -16 -1 -38 -1 -47 1 -62 1 -156 0 -173 -1 -11 -1
-26 -1 -32 2 -31 2 -40 2 -68 -1 -16 -1 -38 -1 -47 1 -62 1 -156 0 -173 -1
-11 -1 -26 -1 -32 2 -31 2 -40 2 -68 -1 -16 -1 -38 -1 -47 1 -62 1 -156 0
-173 -1 -11 -1 -26 -1 -32 2 -31 2 -40 2 -68 -1 -16 0 -38 0 -47 1 -38 1
-1434 -1 -1453 -1 -11 -1 -26 -1 -32 2 -31 2 -40 2 -68 -1 -16 -1 -38 -1 -47
0 -10 0 -47 -1 -84 -1 -36 1 -68 4 -71 3 -3 2 -15 -3 -27 -4 -13 -5 -29 0 -36
4 -7 4 -24 0 -39 -4 -14 -4 -35 0 -46 4 -11 4 -28 1 -39 -4 -10 -4 -41 -1 -68
4 -27 3 -51 -2 -54 -5 -3 -6 -9 -3 -13 2 -5 5 -150 5 -322 0 -650 1 -783 4
-786 1 -2 63 -3 137 -3 74 1 142 1 152 1 27 -1 66 -1 80 0 12 1 366 0 400 0
27 -1 66 -1 80 0 12 1 366 0 400 0 27 -1 66 -1 80 0 23 1 392 0 412 -1 11 -1
27 -1 35 -1 8 0 69 0 135 0 66 -1 127 -1 135 0 8 0 80 0 160 0 80 -1 152 -1
160 0 8 0 80 0 160 0 80 -1 152 -1 160 0 8 0 80 0 160 0 80 -1 152 -1 160 0 8
0 80 0 160 0 80 -1 152 -1 160 0 8 0 80 0 160 0 80 -1 152 -1 160 0 8 0 80 0
160 0 80 -1 152 -1 160 0 8 0 80 0 160 0 80 -1 151 -1 158 0 6 0 54 0 105 0
50 0 101 0 112 1 11 1 25 1 30 1 9 1 359 1 408 0 16 0 17 12 12 162 -6 173 -9
217 -20 312 -4 33 -8 74 -10 90 -10 87 -19 153 -29 210 -19 104 -28 153 -33
175 -3 14 -8 34 -9 45 -2 11 -6 29 -9 40 -2 11 -5 23 -5 27 -1 4 -6 22 -11 40
-6 18 -12 42 -15 53 -3 11 -6 25 -8 30 -2 6 -6 28 -11 50 -4 22 -10 45 -14 50
-3 6 -6 12 -7 15 -4 25 -32 117 -50 165 -4 11 -8 25 -9 31 -7 29 -48 140 -56
148 -5 6 -9 16 -9 22 0 7 -5 25 -12 41 -6 15 -12 30 -13 33 -1 3 -6 16 -12 30
-6 14 -20 48 -31 75 -11 28 -38 88 -61 135 -22 47 -39 88 -38 91 1 3 -3 12 -9
20 -7 8 -38 64 -69 124 -32 61 -64 117 -71 126 -8 8 -14 19 -14 22 0 10 -75
131 -159 255 -42 63 -80 123 -86 133 -5 10 -13 19 -17 19 -5 0 -8 7 -8 15 0 8
-4 15 -8 15 -4 0 -25 25 -47 56 -22 30 -47 64 -57 75 -9 11 -30 37 -47 58
-113 139 -149 178 -336 366 -139 140 -226 221 -323 300 -13 11 -32 27 -41 35
-9 8 -40 32 -69 53 -28 21 -52 43 -52 48 0 5 -5 9 -11 9 -6 0 -23 9 -37 21
-25 19 -91 68 -153 111 -67 48 -210 138 -219 138 -5 0 -10 5 -10 10 0 6 -5 10
-11 10 -6 0 -23 8 -37 19 -54 38 -426 229 -567 292 -22 9 -77 31 -85 34 -3 1
-22 9 -44 18 -21 9 -41 17 -43 17 -3 0 -19 6 -36 14 -18 7 -54 21 -82 31 -27
9 -59 20 -70 25 -20 9 -205 68 -235 76 -8 2 -54 14 -102 28 -49 14 -88 22 -88
19 0 -3 -6 -1 -12 4 -7 6 -20 10 -28 10 -8 0 -35 6 -60 13 -25 7 -54 14 -65
16 -11 2 -42 8 -70 14 -27 5 -63 12 -80 15 -16 3 -39 7 -50 9 -43 8 -162 26
-200 31 -22 2 -49 6 -60 8 -11 3 -58 8 -105 12 -47 3 -101 8 -120 11 -86 9
-380 13 -385 4z"/>
</g>
</svg>
