<?xml version="1.0" standalone="no"?>
<!DOCTYPE svg PUBLIC "-//W3C//DTD SVG 20010904//EN"
 "http://www.w3.org/TR/2001/REC-SVG-20010904/DTD/svg10.dtd">
<svg version="1.0" xmlns="http://www.w3.org/2000/svg"
 width="1568.000000pt" height="1568.000000pt" viewBox="0 0 1568.000000 1568.000000"
 preserveAspectRatio="xMidYMid meet">
<metadata>
Created by potrace 1.14, written by Peter Selinger 2001-2017
</metadata>
<g transform="translate(0.000000,1568.000000) scale(0.100000,-0.100000)"
fill="#000000" stroke="none">
<path d="M8820 15565 c-8 -2 -60 -9 -115 -15 -553 -67 -1080 -335 -1521 -775
-283 -281 -468 -531 -645 -869 l-69 -133 0 -4546 0 -4547 -1210 0 -1210 0 0
-45 0 -45 1255 0 1255 0 0 4493 0 4492 61 -115 c341 -646 900 -1129 1554
-1344 187 -61 337 -94 560 -123 159 -21 562 -23 710 -5 581 73 1006 257 1397
606 238 212 463 523 603 833 59 130 125 318 125 354 0 29 -126 274 -209 407
-152 241 -280 402 -486 607 -446 447 -958 700 -1547 764 -85 10 -467 14 -508
6z m532 -101 c546 -70 1015 -299 1426 -698 266 -258 487 -557 642 -870 l61
-122 -36 -104 c-52 -150 -189 -425 -284 -566 -362 -542 -888 -882 -1541 -998
-311 -55 -710 -55 -1020 -1 -448 79 -815 240 -1170 513 -208 160 -482 472
-631 717 -129 211 -225 419 -213 458 13 44 137 260 219 382 138 206 240 331
430 521 256 256 448 396 740 539 238 117 495 194 765 229 148 20 460 20 612 0z"/>
<path d="M8965 14859 c-111 -15 -212 -46 -320 -98 -481 -235 -700 -794 -506
-1297 63 -164 193 -333 341 -446 81 -62 241 -140 339 -167 311 -85 640 -21
898 176 479 364 539 1068 128 1512 -142 153 -357 273 -557 310 -86 16 -246 21
-323 10z"/>
<path d="M4050 1320 l0 -1320 1235 0 1235 0 0 83 c-1 173 -43 376 -114 543
-176 416 -548 657 -1065 691 l-114 8 114 44 c152 58 410 191 534 273 301 201
500 429 589 677 28 78 56 219 56 282 l0 39 -1235 0 -1235 0 0 -1320z"/>
</g>
</svg>
