<svg width="465" height="448" viewBox="0 0 465 448" fill="none" xmlns="http://www.w3.org/2000/svg">
<path fill-rule="evenodd" clip-rule="evenodd" d="M215.756 1.73814C259.447 -9.95359 298.809 39.85 326.021 75.9568C348.963 106.399 332.305 152.883 353.526 184.547C381.712 226.603 467.733 232.69 464.933 283.23C462.253 331.608 380.574 326.706 343.894 358.39C314.793 383.528 312.741 442.795 274.585 447.656C234.41 452.774 212.262 399.4 176.903 379.665C151.837 365.675 119.831 368.094 98.2108 349.217C74.9481 328.905 65.4466 298.864 52.3445 270.907C33.8256 231.391 -16.6728 189.049 5.54437 151.485C28.864 112.057 100.55 152.891 137.869 126.307C178.589 97.2991 167.452 14.6644 215.756 1.73814Z" fill="#B0B39E"/>
</svg>
